<?xml version="1.0" standalone="no"?>
<!DOCTYPE svg PUBLIC "-//W3C//DTD SVG 20010904//EN"
 "http://www.w3.org/TR/2001/REC-SVG-20010904/DTD/svg10.dtd">
<svg version="1.0" xmlns="http://www.w3.org/2000/svg"
 width="850.000000pt" height="850.000000pt" viewBox="0 0 850.000000 850.000000"
 preserveAspectRatio="xMidYMid meet">
<metadata>
Created by potrace 1.11, written by Peter Selinger 2001-2013
</metadata>
<g transform="translate(0.000000,850.000000) scale(0.100000,-0.100000)"
fill="#000000" stroke="none">
<path d="M4038 7945 c-2 -2 -41 -6 -88 -9 -47 -4 -96 -9 -110 -11 -14 -2 -47
-6 -75 -9 -27 -3 -61 -8 -75 -10 -14 -3 -41 -7 -60 -10 -60 -10 -92 -16 -205
-42 -60 -14 -117 -27 -125 -29 -48 -11 -344 -108 -395 -130 -390 -167 -593
-281 -881 -496 -312 -233 -635 -577 -850 -904 -32 -49 -61 -92 -64 -95 -3 -3
-14 -21 -24 -40 -10 -19 -40 -71 -65 -115 -77 -136 -219 -444 -246 -535 -1 -3
-22 -70 -48 -149 -26 -79 -50 -157 -52 -174 -3 -17 -8 -33 -10 -37 -2 -3 -6
-17 -9 -31 -3 -13 -8 -35 -11 -49 -3 -14 -8 -38 -10 -55 -3 -16 -8 -38 -11
-48 -3 -10 -7 -30 -9 -45 -2 -15 -6 -43 -10 -62 -11 -66 -21 -138 -31 -225
-23 -212 -23 -631 0 -775 2 -14 8 -52 11 -85 10 -79 12 -94 20 -135 3 -19 8
-47 10 -62 2 -15 6 -35 9 -45 3 -10 8 -31 11 -48 9 -55 13 -73 40 -172 15 -54
28 -105 30 -113 2 -8 8 -27 14 -42 6 -16 8 -28 5 -28 -4 0 -2 -6 3 -13 9 -10
24 -57 27 -79 1 -3 4 -10 8 -14 5 -4 8 -13 8 -19 0 -7 8 -30 17 -51 9 -22 17
-41 18 -44 4 -12 19 -48 36 -87 10 -24 19 -46 19 -49 0 -15 164 -331 220 -423
84 -140 217 -328 324 -458 191 -232 515 -528 752 -688 49 -33 91 -63 92 -67 2
-5 7 -8 11 -8 5 0 49 -25 100 -55 151 -92 347 -188 511 -253 152 -59 190 -74
200 -77 6 -1 93 -28 160 -50 25 -8 58 -17 73 -19 16 -3 43 -10 60 -15 18 -6
43 -12 57 -15 14 -3 39 -8 55 -11 17 -3 62 -12 100 -20 69 -13 127 -22 260
-39 249 -33 745 -23 960 18 11 2 45 7 75 12 30 4 57 8 60 9 29 7 70 15 90 19
37 7 58 12 130 31 36 9 74 19 85 22 11 2 29 6 40 9 11 2 79 25 150 49 72 25
135 47 140 49 10 3 26 10 165 69 76 32 235 112 339 169 105 58 373 236 436
290 11 9 63 51 115 94 206 170 419 395 598 633 89 118 262 387 262 408 0 6 4
13 9 15 12 4 178 345 186 383 2 6 12 33 23 60 34 85 60 157 86 245 14 47 30
99 36 115 8 25 41 170 56 240 2 11 6 31 9 45 3 14 7 41 10 60 3 19 7 46 10 60
27 136 39 307 39 565 1 248 -6 361 -29 505 -3 14 -7 45 -10 70 -3 25 -7 56
-10 70 -3 14 -7 36 -10 50 -8 43 -14 74 -20 100 -3 14 -7 35 -10 47 -7 38 -53
204 -76 273 -11 36 -22 70 -23 75 -8 44 -136 347 -202 478 -233 465 -580 894
-984 1216 -52 42 -97 78 -100 81 -3 3 -34 25 -70 49 -36 25 -67 48 -70 51 -3
4 -17 13 -31 21 -15 8 -51 30 -81 50 -45 30 -325 189 -333 189 -1 0 -42 19
-91 42 -49 23 -91 42 -94 43 -3 1 -14 5 -25 10 -102 42 -365 135 -365 129 0
-2 -12 1 -27 7 -16 6 -35 12 -43 14 -8 2 -43 11 -77 20 -35 9 -72 18 -84 20
-11 2 -28 6 -37 9 -19 6 -46 11 -137 26 -33 5 -69 12 -80 14 -32 6 -106 16
-160 22 -27 3 -68 7 -90 10 -43 5 -533 13 -537 9z m522 -739 c19 -3 55 -8 80
-11 56 -7 106 -15 134 -21 11 -2 37 -7 56 -10 115 -19 381 -99 535 -161 113
-46 405 -193 405 -204 0 -5 5 -9 11 -9 7 0 56 -30 111 -67 55 -38 107 -72 116
-78 92 -58 344 -291 477 -440 132 -149 284 -366 366 -525 24 -47 47 -87 50
-90 15 -13 122 -268 163 -390 50 -150 74 -238 92 -334 2 -16 7 -32 9 -36 2 -3
-162 -6 -366 -6 -271 1 -369 4 -369 12 0 7 24 63 53 125 69 146 110 285 101
340 -1 8 -4 28 -7 45 -12 76 -94 175 -174 210 -49 21 -176 27 -239 10 -118
-31 -210 -104 -278 -219 -21 -37 -67 -137 -102 -224 -70 -174 -72 -177 -102
-245 l-21 -47 -98 -1 c-177 -1 -273 -25 -363 -90 -94 -68 -139 -155 -144 -278
-7 -158 57 -241 214 -279 8 -2 37 -6 65 -9 27 -3 51 -6 52 -8 2 -2 -129 -326
-166 -411 -5 -11 -19 -45 -31 -75 -13 -30 -30 -71 -38 -90 -9 -19 -17 -39 -18
-45 -2 -10 -46 -115 -84 -200 -48 -108 -59 -135 -55 -135 3 0 0 -12 -6 -27 -6
-15 -13 -46 -16 -68 -22 -144 13 -262 102 -343 44 -40 128 -92 152 -94 4 0 19
-4 32 -9 53 -21 111 -24 456 -24 352 0 413 4 480 30 91 35 170 94 208 156 52
85 61 239 20 322 -22 44 -91 107 -125 113 -7 1 -33 9 -58 16 -39 13 -138 18
-377 22 -35 0 -53 5 -53 13 0 10 266 661 314 768 8 17 16 39 20 50 6 22 -21
22 878 16 l197 -1 -4 -67 c-4 -76 -14 -185 -20 -223 -9 -65 -18 -117 -21 -135
-2 -11 -7 -33 -9 -50 -3 -16 -8 -38 -11 -47 -3 -9 -7 -26 -9 -37 -21 -96 -45
-178 -76 -268 -128 -371 -327 -722 -566 -997 -88 -101 -270 -279 -361 -354
-102 -84 -307 -231 -362 -259 -19 -10 -40 -23 -46 -28 -13 -12 -254 -133 -324
-163 -25 -11 -61 -26 -80 -35 -33 -14 -237 -85 -270 -93 -8 -2 -51 -12 -95
-24 -44 -11 -91 -22 -105 -25 -14 -3 -36 -7 -50 -10 -14 -3 -36 -7 -50 -9 -14
-2 -45 -7 -70 -11 -138 -22 -246 -29 -435 -29 -173 -1 -308 6 -375 18 -14 3
-45 7 -70 10 -43 6 -67 10 -120 21 -32 7 -68 14 -104 21 -16 2 -32 7 -36 9 -3
2 -17 6 -31 8 -113 21 -378 118 -557 204 -157 76 -385 215 -487 297 l-30 24
180 -1 c159 -1 393 7 510 18 57 5 140 15 161 19 11 2 42 7 69 10 28 4 57 9 66
12 10 2 30 7 45 9 27 4 41 7 94 20 11 3 28 7 38 9 9 2 44 12 77 22 33 10 62
18 65 19 12 1 127 48 152 61 15 8 30 14 33 14 3 -1 44 20 90 46 281 158 515
407 674 717 48 94 98 211 108 252 1 6 11 44 22 85 37 139 45 208 45 370 0 148
-10 227 -45 341 -54 180 -185 352 -352 462 l-58 38 108 55 c296 148 509 391
617 702 19 56 34 102 31 102 -2 0 0 14 5 31 30 103 32 354 4 480 -3 13 -7 33
-9 44 -9 40 -53 151 -74 185 -11 19 -26 46 -32 60 -5 13 -13 27 -17 30 -4 3
-23 25 -41 48 -29 37 -80 84 -171 155 -21 17 -168 91 -210 106 -19 7 -44 17
-55 21 -98 39 -278 67 -470 75 -166 6 -1357 8 -1380 2 -81 -21 -106 -30 -153
-57 -133 -77 -212 -208 -215 -353 -2 -93 19 -151 72 -208 75 -81 119 -91 383
-93 120 -1 220 -5 224 -9 4 -4 2 -17 -4 -30 -19 -38 -51 -115 -159 -382 -25
-60 -48 -114 -51 -120 -4 -5 -7 -14 -9 -20 -3 -14 -61 -154 -79 -189 -8 -16
-14 -33 -14 -37 0 -5 -11 -32 -24 -61 -13 -29 -37 -87 -54 -128 -17 -41 -38
-93 -48 -115 -10 -22 -18 -45 -20 -50 -1 -6 -11 -32 -23 -57 -11 -26 -21 -49
-21 -53 0 -3 -9 -24 -19 -48 -11 -23 -47 -107 -80 -187 -33 -80 -67 -163 -77
-185 -10 -22 -19 -44 -20 -50 -1 -5 -12 -32 -25 -60 -12 -27 -23 -52 -24 -55
-8 -24 -18 -50 -30 -75 -8 -16 -46 -109 -85 -205 -39 -96 -75 -184 -80 -195
-5 -11 -21 -49 -35 -85 -15 -36 -35 -84 -46 -107 -10 -24 -19 -45 -19 -48 0
-4 -60 -149 -123 -295 -6 -14 -11 -27 -11 -30 -2 -10 -78 -190 -96 -227 l-17
-36 -15 24 c-8 13 -29 47 -45 74 -134 219 -287 612 -329 845 -3 14 -9 41 -14
60 -5 19 -11 52 -14 73 -3 20 -9 54 -12 75 -3 20 -7 48 -10 62 -24 144 -24
562 1 738 8 59 15 107 19 129 3 11 7 38 11 59 21 133 102 407 170 569 47 115
154 329 166 333 5 2 9 10 9 18 0 8 5 20 10 27 6 7 50 73 100 147 49 74 102
150 117 169 277 340 561 583 908 778 120 68 409 197 465 208 8 2 16 4 18 4 1
1 5 1 10 2 4 0 12 4 17 8 6 5 24 12 40 16 17 5 35 9 40 11 69 20 125 35 149
39 16 3 33 8 36 10 4 3 25 7 45 11 21 3 46 8 56 10 11 2 29 6 42 9 12 3 42 8
67 11 25 3 53 8 64 10 10 2 53 6 95 10 42 3 77 7 79 9 6 5 484 -3 522 -9z
m-413 -1421 c140 -22 235 -95 261 -202 9 -37 8 -168 -2 -213 -24 -115 -110
-265 -205 -361 -77 -77 -180 -138 -270 -161 -105 -26 -120 -28 -211 -33 -186
-11 -231 -12 -236 -4 -3 5 2 26 11 46 10 21 21 47 25 58 5 11 15 36 23 55 13
31 27 66 32 80 1 3 9 21 17 40 9 19 71 168 137 330 67 162 130 313 140 336
l19 41 111 -3 c61 -1 128 -5 148 -9z m-557 -1709 c25 -3 65 -8 89 -11 24 -3
47 -8 51 -10 4 -2 21 -7 38 -10 61 -10 142 -47 190 -84 106 -85 150 -235 129
-445 -4 -38 -9 -72 -12 -76 -2 -3 -6 -17 -9 -31 -38 -202 -226 -472 -412 -592
-84 -54 -208 -112 -261 -121 -13 -3 -47 -12 -76 -20 -29 -8 -68 -17 -87 -20
-19 -3 -46 -8 -60 -10 -71 -13 -106 -16 -225 -23 -71 -3 -143 -6 -160 -6 -16
0 -72 1 -123 2 l-93 1 15 29 c8 15 33 73 55 127 35 87 103 252 133 324 6 14
12 30 14 35 2 11 57 141 80 192 8 17 14 34 14 37 0 3 9 25 19 49 11 23 41 94
66 157 44 106 68 167 139 340 15 36 31 74 36 85 5 11 15 36 23 55 l14 36 184
-2 c101 -1 204 -4 229 -8z"/>
</g>
</svg>
